<?xml version="1.0" encoding="iso-8859-1"?>
<!DOCTYPE svg PUBLIC "-//W3C//DTD SVG 1.1//EN" "http://www.w3.org/Graphics/SVG/1.1/DTD/svg11.dtd">
<svg version="1.1" id="Capa_1" xmlns="http://www.w3.org/2000/svg" xmlns:xlink="http://www.w3.org/1999/xlink" x="0px" y="0px"
	 viewBox="0 0 475.801 475.801" style="enable-background:new 0 0 475.801 475.801;" xml:space="preserve">
<path d="M468.301,148.677H298.731v-0.109c0-4.143-3.357-7.5-7.5-7.5s-7.5,3.357-7.5,7.5v7.609v6.12H151.299V156.9
	c0-4.143-3.357-7.5-7.5-7.5s-7.5,3.357-7.5,7.5v12.896v9.878H15v-5.107c0-4.143-3.357-7.5-7.5-7.5s-7.5,3.357-7.5,7.5v12.607
	v101.451v12.607c0,4.143,3.357,7.5,7.5,7.5s7.5-3.357,7.5-7.5v-5.107h121.299v9.878v9.62c0,4.143,3.357,7.5,7.5,7.5
	s7.5-3.357,7.5-7.5v-2.12h132.433v6.12v7.609c0,4.143,3.357,7.5,7.5,7.5s7.5-3.357,7.5-7.5v-0.109h169.569
	c4.143,0,7.5-3.357,7.5-7.5V156.177C475.801,152.034,472.443,148.677,468.301,148.677z M15,281.126v-49.347h101.374
	c4.143,0,7.5-3.357,7.5-7.5s-3.357-7.5-7.5-7.5H15v-22.104h121.299v86.451H15z M151.299,298.504v-9.878v-78.764h108.832
	c4.143,0,7.5-3.357,7.5-7.5s-3.357-7.5-7.5-7.5H151.299v-7.688v-9.878h132.433v121.207H151.299z M298.731,306.004V190.918h82.772
	c4.143,0,7.5-3.357,7.5-7.5s-3.357-7.5-7.5-7.5h-82.772v-6.121v-6.12h128.672v148.447H298.731V306.004z M460.801,312.124h-18.397
	V163.677h18.397V312.124z" fill="#f4f4f4" />
<g>
</g>
<g>
</g>
<g>
</g>
<g>
</g>
<g>
</g>
<g>
</g>
<g>
</g>
<g>
</g>
<g>
</g>
<g>
</g>
<g>
</g>
<g>
</g>
<g>
</g>
<g>
</g>
<g>
</g>
</svg>
